PathFileType	4	(X/Y/Z)	OpenSim_Sub01_CSStiffKnee_Magnet.trc
DataRate	CameraRate	NumFrames	NumMarkers	Units	OrigDataRate	OrigDataStartFrame	OrigNumFrames
100	100	40	8	m	100	1346	5381
Frame#	Time	torso_imu_offset_imu	pelvis_imu_offset_imu	tibia_r_imu_offset_imu	femur_r_imu_offset_imu	tibia_l_imu_offset_imu	femur_l_imu_offset_imu	toes_r_imu_offset_imu	toes_l_imu_offset_imu
				X1	Y1	Z1	X2	Y2	Z2	X3	Y3	Z3	X4	Y4	Z4	X5	Y5	Z5	X6	Y6	Z6	X7	Y7	Z7	X8		Y8	Z8	

1346	13.45000000	-0.92479691	-0.05797325	0.12404299	-0.66951735	0.08342291	-0.64895120	-0.38726883	-0.72616621	-0.03786263	-0.61085900	-0.56049079	0.06432403	-0.67290926	0.42221168	0.14792784	-0.48473998	-0.14348816	0.24531452	-0.74328991	-0.18475456	-0.24669030	-0.68447987	-0.16657408	-0.38384222
1347	13.46000000	-0.92450863	-0.06201639	0.12172212	-0.67134080	0.08433913	-0.64761402	-0.37433521	-0.73386379	-0.04266216	-0.61167358	-0.56127716	0.05934758	-0.66725908	0.42932696	0.15227409	-0.48204831	-0.14000451	0.24770473	-0.75332068	-0.19192110	-0.23379873	-0.68915736	-0.16213798	-0.38080263
1348	13.47000000	-0.92692846	-0.06531230	0.12046339	-0.67152413	0.08476282	-0.64801330	-0.36107508	-0.73783209	-0.04696977	-0.61199112	-0.55995146	0.05505436	-0.66076714	0.44074357	0.15465078	-0.48116875	-0.13525717	0.25198083	-0.76186964	-0.19978816	-0.21542757	-0.68826372	-0.16246086	-0.37843114
1349	13.48000000	-0.92998678	-0.06866363	0.11876689	-0.67247491	0.08581589	-0.64824003	-0.34744230	-0.74149816	-0.05117785	-0.61307470	-0.55656595	0.05162774	-0.65360928	0.45173351	0.15754344	-0.48074814	-0.13218743	0.25692551	-0.77082762	-0.20856789	-0.19229372	-0.68512097	-0.16443521	-0.37707534
1350	13.49000000	-0.93144111	-0.07289795	0.11516522	-0.67674160	0.08853117	-0.64632586	-0.33333120	-0.74856327	-0.05572289	-0.61626879	-0.55137142	0.04906446	-0.64600454	0.45726481	0.16348033	-0.47933206	-0.13362399	0.26108917	-0.78205000	-0.21852846	-0.16520527	-0.68335716	-0.16473844	-0.37716686
1351	13.50000000	-0.93108827	-0.07743137	0.11048322	-0.68347490	0.09276419	-0.64245226	-0.31877447	-0.75778329	-0.06077372	-0.62154689	-0.54531763	0.04648091	-0.63802117	0.45872834	0.17180099	-0.47719347	-0.13801273	0.26451201	-0.79367375	-0.22951464	-0.13328894	-0.68355917	-0.16404110	-0.37763133
1352	13.51000000	-0.92992724	-0.08085125	0.10689330	-0.68982639	0.09767707	-0.63806568	-0.30388644	-0.76500621	-0.06633973	-0.62807507	-0.53976156	0.04247866	-0.62964217	0.46129181	0.17996958	-0.47561948	-0.14121941	0.26811246	-0.80165146	-0.24112034	-0.09469075	-0.68452259	-0.16535977	-0.37651262
1353	13.52000000	-0.92878364	-0.08257806	0.10557768	-0.69405824	0.10266117	-0.63394063	-0.28878563	-0.76809286	-0.07209927	-0.63530994	-0.53498240	0.03661465	-0.62163559	0.46756003	0.18666070	-0.47486875	-0.14023886	0.27267139	-0.80387471	-0.25271021	-0.04992382	-0.68562357	-0.16968879	-0.37325110
1354	13.53000000	-0.92806155	-0.08391502	0.10547040	-0.69696821	0.10763943	-0.62931579	-0.27359754	-0.76947904	-0.07699661	-0.64337959	-0.52884266	0.03059242	-0.61652360	0.47431048	0.19330393	-0.47287587	-0.13465959	0.27863745	-0.80262455	-0.26314459	-0.00481122	-0.68758528	-0.17344267	-0.37042861
1355	13.54000000	-0.92803113	-0.08629214	0.10527988	-0.69953035	0.11261377	-0.62341522	-0.25843804	-0.77200449	-0.07995984	-0.65245122	-0.51918257	0.02621135	-0.61661586	0.47794022	0.20145098	-0.46758255	-0.12458043	0.28619211	-0.80051463	-0.27140735	0.03480681	-0.69114075	-0.17290215	-0.37070202
1356	13.55000000	-0.92816887	-0.08981874	0.10452600	-0.70099637	0.11765917	-0.61745720	-0.24331380	-0.77628835	-0.08077541	-0.66215781	-0.50698745	0.02326172	-0.61957773	0.47905915	0.21006657	-0.46024999	-0.11174575	0.29322313	-0.79746079	-0.27846215	0.07033015	-0.69524302	-0.16936474	-0.37311497
1357	13.56000000	-0.92748600	-0.09382619	0.10320810	-0.69960917	0.12289283	-0.61383114	-0.22816713	-0.78164009	-0.07973767	-0.67181793	-0.49509104	0.02034972	-0.62034575	0.48075492	0.21659649	-0.45409227	-0.09886733	0.29627639	-0.79179366	-0.28643518	0.10740723	-0.69780083	-0.16707815	-0.37458599
1358	13.57000000	-0.92561105	-0.09789140	0.10150022	-0.69512570	0.12823977	-0.61379698	-0.21296014	-0.78743621	-0.07747488	-0.68091202	-0.48485389	0.01630339	-0.61615568	0.48453044	0.22001565	-0.45119157	-0.08795866	0.29427719	-0.78316962	-0.29631197	0.14692847	-0.69792596	-0.16833480	-0.37338623
1359	13.58000000	-0.92356343	-0.10216149	0.09995234	-0.69071033	0.13319501	-0.61606083	-0.19770085	-0.79324053	-0.07534577	-0.68929073	-0.47429630	0.01047995	-0.60945227	0.48828120	0.22275465	-0.45104824	-0.07944717	0.29149857	-0.77424872	-0.30649948	0.17904536	-0.69744469	-0.17097925	-0.37086624
1360	13.59000000	-0.92245009	-0.10684086	0.09908444	-0.68956299	0.13725310	-0.61906223	-0.18254751	-0.79858038	-0.07478145	-0.69692779	-0.46122844	0.00255211	-0.60321098	0.48968747	0.22744349	-0.45267748	-0.07346824	0.29245841	-0.76782167	-0.31508081	0.19360682	-0.69838726	-0.17250738	-0.36860558
1361	13.60000000	-0.92233931	-0.11192862	0.09858163	-0.69049089	0.14050461	-0.62205609	-0.16914478	-0.80234490	-0.07694046	-0.70455063	-0.44595751	-0.00528998	-0.59861024	0.48924661	0.23394356	-0.45369276	-0.06935727	0.29673180	-0.76383214	-0.32039772	0.19233874	-0.70109763	-0.17302824	-0.36624660
1362	13.61000000	-0.92268665	-0.11730222	0.09763891	-0.68971956	0.14339298	-0.62477750	-0.16001047	-0.80305184	-0.08281327	-0.71332682	-0.43026180	-0.00938197	-0.59576595	0.48911470	0.24048517	-0.45089200	-0.06597923	0.30098534	-0.76054667	-0.32095121	0.18395877	-0.70492409	-0.17418856	-0.36229555
1363	13.62000000	-0.92295542	-0.12271025	0.09594810	-0.68550625	0.14663594	-0.62678832	-0.15687224	-0.80029965	-0.09186060	-0.72348197	-0.41551387	-0.00837091	-0.59427246	0.49078940	0.24574689	-0.44347428	-0.06250248	0.30343514	-0.75674127	-0.31664629	0.17409462	-0.70901640	-0.17681537	-0.35667398
1364	13.63000000	-0.92264391	-0.12761734	0.09432382	-0.68071603	0.15155299	-0.62725002	-0.15966958	-0.79610877	-0.10013469	-0.73312709	-0.40213858	-0.00610377	-0.59259104	0.49425143	0.24945455	-0.43601987	-0.05878588	0.30583862	-0.75237707	-0.31051620	0.16127786	-0.71211006	-0.17986231	-0.35249405
1365	13.64000000	-0.92132693	-0.13152432	0.09364753	-0.67854089	0.15928527	-0.62544877	-0.16803096	-0.79260590	-0.10357775	-0.74035210	-0.39032528	-0.00663651	-0.58921785	0.49921581	0.25155175	-0.43328127	-0.05478564	0.31018984	-0.74758764	-0.30564596	0.14341438	-0.71306952	-0.18210193	-0.35281809
1366	13.65000000	-0.91932053	-0.13470227	0.09392257	-0.67911144	0.16829162	-0.62251702	-0.18087196	-0.78963186	-0.10175717	-0.74598251	-0.37915605	-0.00891907	-0.58459228	0.50477356	0.25276739	-0.43427207	-0.05049820	0.31597918	-0.74263157	-0.30128603	0.12186317	-0.71266898	-0.18305376	-0.35573716
1367	13.66000000	-0.91737702	-0.13787498	0.09463517	-0.68075404	0.17545623	-0.62067055	-0.19668957	-0.78568167	-0.09638029	-0.75245097	-0.36706464	-0.00889906	-0.58029701	0.50965079	0.25428966	-0.43462926	-0.04594440	0.32122340	-0.73784329	-0.29443217	0.10001357	-0.71280500	-0.18268009	-0.35642107
1368	13.67000000	-0.91603745	-0.14140400	0.09546374	-0.68215309	0.17927881	-0.62087439	-0.21439362	-0.77982387	-0.08946235	-0.76077957	-0.35351207	-0.00458373	-0.57728523	0.51325134	0.25647831	-0.43185112	-0.04128897	0.32463891	-0.73400680	-0.28364925	0.07983358	-0.71448586	-0.18139113	-0.35245181
1369	13.68000000	-0.91535891	-0.14482974	0.09653036	-0.68284404	0.18190915	-0.62127174	-0.23382723	-0.77244550	-0.08364380	-0.76879680	-0.34027029	0.00133736	-0.57507250	0.51650180	0.25783129	-0.42768639	-0.03701689	0.32654582	-0.73290712	-0.27106822	0.06006122	-0.71670531	-0.18058361	-0.34687781
1370	13.69000000	-0.91529744	-0.14764922	0.09800024	-0.68254581	0.18576872	-0.61990021	-0.25500127	-0.76408036	-0.08141470	-0.77417564	-0.32918630	0.00577949	-0.57299671	0.52042904	0.25687206	-0.42427218	-0.03360611	0.32749591	-0.73619687	-0.25913139	0.03905703	-0.71827981	-0.18159884	-0.34312812
1371	13.70000000	-0.91544161	-0.15005872	0.09986367	-0.68168326	0.19098502	-0.61764937	-0.27835494	-0.75493609	-0.08283958	-0.77744521	-0.31965444	0.00811918	-0.57056939	0.52496817	0.25498841	-0.42181766	-0.03101459	0.32819309	-0.74276398	-0.24851373	0.01579605	-0.71900885	-0.18382777	-0.34092550
1372	13.71000000	-0.91516495	-0.15266484	0.10200832	-0.68109450	0.19633413	-0.61708401	-0.30457591	-0.74502600	-0.08655299	-0.78081452	-0.30962696	0.00918418	-0.56740567	0.52941236	0.25524885	-0.41939597	-0.02889400	0.32942834	-0.74986845	-0.23884753	-0.01038375	-0.71927141	-0.18551465	-0.33781437
1373	13.72000000	-0.91420234	-0.15561122	0.10443062	-0.68094915	0.20097518	-0.61924160	-0.33346086	-0.73397143	-0.09137791	-0.78544190	-0.29807706	0.00966906	-0.56335410	0.53350172	0.25881985	-0.41634389	-0.02700288	0.33143400	-0.75540990	-0.22973689	-0.04005483	-0.71934808	-0.18571879	-0.33304679
1374	13.73000000	-0.91310112	-0.15799663	0.10737280	-0.67991326	0.20496103	-0.62170355	-0.36281120	-0.72052464	-0.09659902	-0.79009299	-0.28629748	0.00992939	-0.55878124	0.53799213	0.26257547	-0.41261927	-0.02534702	0.33319344	-0.75876207	-0.22075314	-0.07360037	-0.71928321	-0.18535114	-0.32974779
1375	13.74000000	-0.91242575	-0.15894494	0.11098983	-0.67665828	0.20847072	-0.62189591	-0.39040617	-0.70352761	-0.10153439	-0.79339319	-0.27577376	0.01026114	-0.55411734	0.54361073	0.26319825	-0.40830057	-0.02387817	0.33371803	-0.75951555	-0.21146938	-0.11118985	-0.71910641	-0.18544452	-0.33106246
1376	13.75000000	-0.91178195	-0.15929854	0.11419319	-0.67201127	0.21173771	-0.62046824	-0.41658324	-0.68396248	-0.10520213	-0.79586262	-0.26674184	0.01081870	-0.54972709	0.54936946	0.26138927	-0.40384382	-0.02164495	0.33405317	-0.75744090	-0.20152312	-0.15105143	-0.71902492	-0.18570285	-0.33493298
1377	13.76000000	-0.91021411	-0.16090823	0.11516694	-0.66806659	0.21502582	-0.61996605	-0.44318513	-0.66406707	-0.10644639	-0.79913326	-0.25870171	0.01167192	-0.54593459	0.55327385	0.26021397	-0.39992554	-0.01716971	0.33643858	-0.75241595	-0.19059169	-0.19027230	-0.71934883	-0.18505072	-0.33624543
1378	13.77000000	-0.90764882	-0.16448306	0.11340407	-0.66599664	0.21822752	-0.62172458	-0.47124751	-0.64463726	-0.10474237	-0.80359270	-0.25141153	0.01267693	-0.54266553	0.55447819	0.26141896	-0.39675335	-0.01034842	0.34193881	-0.74455980	-0.17874793	-0.22684075	-0.71996959	-0.18337640	-0.33267237
1379	13.78000000	-0.90599736	-0.16815553	0.11133900	-0.66488012	0.22040589	-0.62432412	-0.49996179	-0.62321530	-0.10097846	-0.80681989	-0.24522670	0.01321544	-0.53895771	0.55472910	0.26373998	-0.39348225	-0.00415724	0.34896187	-0.73452676	-0.16694597	-0.26078858	-0.71984164	-0.18274097	-0.32819184
1380	13.79000000	-0.90716655	-0.16995205	0.11148513	-0.66363937	0.22065707	-0.62611217	-0.52828873	-0.59732362	-0.09623319	-0.80640375	-0.24053620	0.01274781	-0.53389094	0.55602532	0.26559683	-0.38925552	-0.00158152	0.35560435	-0.72312685	-0.15606199	-0.29235884	-0.71799196	-0.18512985	-0.32719264
1381	13.80000000	-0.91024507	-0.17040295	0.11306213	-0.66250688	0.21957729	-0.62688159	-0.55538422	-0.56882471	-0.09157441	-0.80395921	-0.23724167	0.01220899	-0.52821863	0.55934788	0.26635342	-0.38456632	-0.00139894	0.36045863	-0.71203014	-0.14493657	-0.32112105	-0.71550492	-0.18871262	-0.32949592
1382	13.81000000	-0.91266458	-0.17151062	0.11335434	-0.66248416	0.21864446	-0.62727745	-0.58052076	-0.54213066	-0.08806037	-0.80346617	-0.23495610	0.01339827	-0.52367596	0.56507318	0.26593198	-0.38070050	0.00008457	0.36241472	-0.70340604	-0.13121654	-0.34625182	-0.71467357	-0.18941957	-0.33223211
1383	13.82000000	-0.91300556	-0.17419790	0.11127417	-0.66375305	0.21864789	-0.62785272	-0.60329259	-0.51938808	-0.08605679	-0.80677372	-0.23305337	0.01694513	-0.52081901	0.57268871	0.26454454	-0.37819123	0.00436644	0.36145505	-0.69772834	-0.11405067	-0.36785364	-0.71672259	-0.18567236	-0.33333378
1384	13.83000000	-0.91245971	-0.17693648	0.10942250	-0.66464427	0.21881503	-0.62893021	-0.62400851	-0.49761525	-0.08438458	-0.81090839	-0.23038204	0.02084390	-0.51754481	0.57971589	0.26303363	-0.37586928	0.00797155	0.35999096	-0.69167301	-0.09597347	-0.38810636	-0.72045797	-0.18151613	-0.33260080
1385	13.84000000	-0.91241814	-0.17805180	0.11059906	-0.66348762	0.21822391	-0.63073426	-0.64301578	-0.47352509	-0.08182018	-0.81255236	-0.22594666	0.02295532	-0.51167808	0.58378744	0.26219465	-0.37250011	0.00729522	0.36049838	-0.68181691	-0.07970283	-0.40925993	-0.72438768	-0.18124523	-0.33017263
